<?xml version="1.0" encoding="iso-8859-1"?>
<!-- Generator: Adobe Illustrator 19.0.0, SVG Export Plug-In . SVG Version: 6.00 Build 0)  -->
<svg version="1.1" id="Layer_1" xmlns="http://www.w3.org/2000/svg" xmlns:xlink="http://www.w3.org/1999/xlink" x="0px" y="0px"
	 viewBox="0 0 306.563 306.563" style="enable-background:new 0 0 306.563 306.563;" xml:space="preserve">
<g>
	<path style="fill:#28D2E4;" d="M259.063,186.525H47.5V38.679c0-5.523,4.477-10,10-10h191.563c5.523,0,10,4.477,10,10V186.525z"/>
	<rect x="77.5" y="58.679" style="fill:#FFDB77;" width="151.563" height="97.847"/>
	<polygon style="fill:#28D2E4;" points="299.063,232.905 7.5,232.905 47.5,186.525 259.063,186.525 	"/>
	<rect x="7.5" y="232.905" style="fill:#13829B;" width="291.563" height="44.979"/>
	<g>
		<path style="fill:#22313F;" d="M229.063,51.179H77.5c-4.142,0-7.5,3.358-7.5,7.5v97.847c0,4.142,3.358,7.5,7.5,7.5h151.563
			c4.143,0,7.5-3.358,7.5-7.5V58.679C236.563,54.537,233.206,51.179,229.063,51.179z M221.563,149.026H85V66.179h136.563V149.026z"
			/>
		<path style="fill:#22313F;" d="M304.743,228.005l-38.18-44.268V38.679c0-9.65-7.851-17.5-17.5-17.5H57.5
			c-9.65,0-17.5,7.85-17.5,17.5v145.059L1.82,228.005c-1.149,1.335-1.818,3.119-1.82,4.89c0,0.003,0,0.006,0,0.01v44.979
			c0,4.142,3.358,7.5,7.5,7.5h291.563c4.142,0,7.5-3.358,7.5-7.5v-44.98C306.563,231.129,305.907,229.357,304.743,228.005z
			 M55,38.679c0-1.379,1.121-2.5,2.5-2.5h191.563c1.379,0,2.5,1.121,2.5,2.5v140.347H55V38.679z M50.935,194.026h204.692
			l27.063,31.379H23.872L50.935,194.026z M291.563,270.384H15v-29.98h276.563V270.384z"/>
		<path style="fill:#22313F;" d="M162.006,202.215H86.224c-4.142,0-7.5,3.358-7.5,7.5s3.358,7.5,7.5,7.5h75.782
			c4.143,0,7.5-3.358,7.5-7.5S166.149,202.215,162.006,202.215z"/>
		<path style="fill:#22313F;" d="M220.339,202.215h-22.667c-4.143,0-7.5,3.358-7.5,7.5s3.357,7.5,7.5,7.5h22.667
			c4.143,0,7.5-3.358,7.5-7.5C227.839,205.573,224.482,202.215,220.339,202.215z"/>
	</g>
</g>
<g>
</g>
<g>
</g>
<g>
</g>
<g>
</g>
<g>
</g>
<g>
</g>
<g>
</g>
<g>
</g>
<g>
</g>
<g>
</g>
<g>
</g>
<g>
</g>
<g>
</g>
<g>
</g>
<g>
</g>
</svg>
